<mxfile host="app.diagrams.net" modified="2020-06-16T19:37:49.510Z" agent="5.0 (Windows NT 10.0; Win64; x64) AppleWebKit/537.36 (KHTML, like Gecko) Chrome/83.0.4103.97 Safari/537.36 Edg/83.0.478.45" etag="6227yLcWEnZ30sOSn3Mz" version="13.2.4" type="github">
  <diagram name="Page-1" id="e7e014a7-5840-1c2e-5031-d8a46d1fe8dd">
    <mxGraphModel dx="2286" dy="637" grid="1" gridSize="10" guides="1" tooltips="1" connect="1" arrows="1" fold="1" page="1" pageScale="1" pageWidth="1169" pageHeight="826" background="#ffffff" math="0" shadow="0">
      <root>
        <mxCell id="0" />
        <mxCell id="1" parent="0" />
        <mxCell id="2" value="Transar" style="swimlane;whiteSpace=wrap" parent="1" vertex="1">
          <mxGeometry x="70" y="128" width="374.5" height="1482" as="geometry" />
        </mxCell>
        <mxCell id="X1SJDL4mr-TTNCb6LaV9-53" value="" style="edgeStyle=orthogonalEdgeStyle;rounded=0;orthogonalLoop=1;jettySize=auto;html=1;" edge="1" parent="2" source="10" target="X1SJDL4mr-TTNCb6LaV9-52">
          <mxGeometry relative="1" as="geometry">
            <Array as="points">
              <mxPoint x="275" y="372" />
              <mxPoint x="275" y="372" />
            </Array>
          </mxGeometry>
        </mxCell>
        <mxCell id="X1SJDL4mr-TTNCb6LaV9-69" value="" style="edgeStyle=orthogonalEdgeStyle;rounded=0;orthogonalLoop=1;jettySize=auto;html=1;exitX=0.5;exitY=1;exitDx=0;exitDy=0;" edge="1" parent="2" source="10" target="X1SJDL4mr-TTNCb6LaV9-52">
          <mxGeometry relative="1" as="geometry">
            <Array as="points">
              <mxPoint x="275" y="342" />
            </Array>
          </mxGeometry>
        </mxCell>
        <mxCell id="10" value="Cargar Controles &#xa;Circular 007" style="" parent="2" vertex="1">
          <mxGeometry x="215.5" y="292" width="110" height="50" as="geometry" />
        </mxCell>
        <mxCell id="X1SJDL4mr-TTNCb6LaV9-71" value="" style="edgeStyle=orthogonalEdgeStyle;rounded=0;orthogonalLoop=1;jettySize=auto;html=1;" edge="1" parent="2" source="X1SJDL4mr-TTNCb6LaV9-52" target="X1SJDL4mr-TTNCb6LaV9-70">
          <mxGeometry relative="1" as="geometry" />
        </mxCell>
        <mxCell id="X1SJDL4mr-TTNCb6LaV9-52" value="Cargar información &#xa;de usuario de sesion" style="" vertex="1" parent="2">
          <mxGeometry x="220" y="392" width="110" height="50" as="geometry" />
        </mxCell>
        <mxCell id="X1SJDL4mr-TTNCb6LaV9-70" value="Consultar información &#xa;requisitos circular 007" style="" vertex="1" parent="2">
          <mxGeometry x="215" y="482" width="120" height="50" as="geometry" />
        </mxCell>
        <mxCell id="X1SJDL4mr-TTNCb6LaV9-132" style="edgeStyle=orthogonalEdgeStyle;rounded=0;orthogonalLoop=1;jettySize=auto;html=1;entryX=0.25;entryY=0.5;entryDx=0;entryDy=0;entryPerimeter=0;" edge="1" parent="2" source="X1SJDL4mr-TTNCb6LaV9-45" target="X1SJDL4mr-TTNCb6LaV9-128">
          <mxGeometry relative="1" as="geometry">
            <Array as="points">
              <mxPoint x="90" y="452" />
              <mxPoint x="90" y="452" />
            </Array>
          </mxGeometry>
        </mxCell>
        <mxCell id="X1SJDL4mr-TTNCb6LaV9-45" value="Ocultar Controles &#xa;Circular 007" style="" vertex="1" parent="2">
          <mxGeometry x="37.25" y="322" width="110" height="50" as="geometry" />
        </mxCell>
        <mxCell id="X1SJDL4mr-TTNCb6LaV9-47" value="Si" style="text;html=1;align=center;verticalAlign=middle;resizable=0;points=[];autosize=1;" vertex="1" parent="2">
          <mxGeometry x="220" y="236" width="30" height="20" as="geometry" />
        </mxCell>
        <mxCell id="X1SJDL4mr-TTNCb6LaV9-48" value="No" style="text;html=1;align=center;verticalAlign=middle;resizable=0;points=[];autosize=1;" vertex="1" parent="2">
          <mxGeometry x="97" y="231" width="30" height="20" as="geometry" />
        </mxCell>
        <mxCell id="X1SJDL4mr-TTNCb6LaV9-131" style="edgeStyle=orthogonalEdgeStyle;rounded=0;orthogonalLoop=1;jettySize=auto;html=1;entryX=0.75;entryY=0.5;entryDx=0;entryDy=0;entryPerimeter=0;" edge="1" parent="2" source="X1SJDL4mr-TTNCb6LaV9-78" target="X1SJDL4mr-TTNCb6LaV9-128">
          <mxGeometry relative="1" as="geometry" />
        </mxCell>
        <mxCell id="X1SJDL4mr-TTNCb6LaV9-78" value="´Guarda información &#xa;en sesion" style="" vertex="1" parent="2">
          <mxGeometry x="215.5" y="572" width="120" height="50" as="geometry" />
        </mxCell>
        <mxCell id="X1SJDL4mr-TTNCb6LaV9-80" value="Muestra datos &#xa;al usuario" style="" vertex="1" parent="2">
          <mxGeometry x="80" y="732" width="120" height="50" as="geometry" />
        </mxCell>
        <mxCell id="X1SJDL4mr-TTNCb6LaV9-99" value="Solicita Radicación&#xa;de Datos" style="" vertex="1" parent="2">
          <mxGeometry x="210" y="1067" width="120" height="50" as="geometry" />
        </mxCell>
        <mxCell id="X1SJDL4mr-TTNCb6LaV9-115" style="edgeStyle=orthogonalEdgeStyle;rounded=0;orthogonalLoop=1;jettySize=auto;html=1;" edge="1" parent="2" source="X1SJDL4mr-TTNCb6LaV9-108" target="X1SJDL4mr-TTNCb6LaV9-114">
          <mxGeometry relative="1" as="geometry" />
        </mxCell>
        <mxCell id="X1SJDL4mr-TTNCb6LaV9-108" value="Radicación &#xa;Correcta" style="rhombus;fillColor=#ffffc0;strokeColor=#ff0000;" vertex="1" parent="2">
          <mxGeometry x="147.25" y="1222" width="80" height="40" as="geometry" />
        </mxCell>
        <mxCell id="X1SJDL4mr-TTNCb6LaV9-113" value="Sí" style="text;html=1;align=center;verticalAlign=middle;resizable=0;points=[];autosize=1;" vertex="1" parent="2">
          <mxGeometry x="227.25" y="1222" width="30" height="20" as="geometry" />
        </mxCell>
        <mxCell id="X1SJDL4mr-TTNCb6LaV9-126" style="edgeStyle=orthogonalEdgeStyle;rounded=0;orthogonalLoop=1;jettySize=auto;html=1;entryX=0.25;entryY=0.5;entryDx=0;entryDy=0;entryPerimeter=0;" edge="1" parent="2" source="X1SJDL4mr-TTNCb6LaV9-114" target="X1SJDL4mr-TTNCb6LaV9-120">
          <mxGeometry relative="1" as="geometry">
            <Array as="points">
              <mxPoint x="80" y="1382" />
              <mxPoint x="130" y="1382" />
            </Array>
          </mxGeometry>
        </mxCell>
        <mxCell id="X1SJDL4mr-TTNCb6LaV9-114" value="Mensaje indicando&#xa;que hubo un erro al&#xa;actualizar" style="" vertex="1" parent="2">
          <mxGeometry x="20" y="1322" width="120" height="50" as="geometry" />
        </mxCell>
        <mxCell id="X1SJDL4mr-TTNCb6LaV9-116" value="No" style="text;html=1;align=center;verticalAlign=middle;resizable=0;points=[];autosize=1;" vertex="1" parent="2">
          <mxGeometry x="110" y="1222" width="30" height="20" as="geometry" />
        </mxCell>
        <mxCell id="X1SJDL4mr-TTNCb6LaV9-120" value="" style="shape=line;html=1;strokeWidth=6;strokeColor=#ff0000;" vertex="1" parent="2">
          <mxGeometry x="80" y="1392" width="200" height="10" as="geometry" />
        </mxCell>
        <mxCell id="X1SJDL4mr-TTNCb6LaV9-128" value="" style="shape=line;html=1;strokeWidth=6;strokeColor=#ff0000;" vertex="1" parent="2">
          <mxGeometry x="40" y="682" width="200" height="10" as="geometry" />
        </mxCell>
        <mxCell id="X1SJDL4mr-TTNCb6LaV9-129" value="" style="edgeStyle=orthogonalEdgeStyle;html=1;verticalAlign=bottom;endArrow=open;endSize=8;strokeColor=#ff0000;" edge="1" source="X1SJDL4mr-TTNCb6LaV9-128" parent="2" target="X1SJDL4mr-TTNCb6LaV9-80">
          <mxGeometry relative="1" as="geometry">
            <mxPoint x="140" y="722" as="targetPoint" />
          </mxGeometry>
        </mxCell>
        <mxCell id="X1SJDL4mr-TTNCb6LaV9-135" value="NO" style="text;html=1;align=center;verticalAlign=middle;resizable=0;points=[];autosize=1;" vertex="1" parent="2">
          <mxGeometry x="214" y="1003" width="30" height="20" as="geometry" />
        </mxCell>
        <mxCell id="X1SJDL4mr-TTNCb6LaV9-137" value="SI" style="text;html=1;align=center;verticalAlign=middle;resizable=0;points=[];autosize=1;" vertex="1" parent="2">
          <mxGeometry x="65" y="1003" width="30" height="20" as="geometry" />
        </mxCell>
        <mxCell id="X1SJDL4mr-TTNCb6LaV9-138" value="Se almacena&#xa;información en BD" style="" vertex="1" parent="2">
          <mxGeometry x="20" y="1067" width="120" height="50" as="geometry" />
        </mxCell>
        <mxCell id="3" value="ALDEA" style="swimlane;whiteSpace=wrap" parent="1" vertex="1">
          <mxGeometry x="444.5" y="128" width="280" height="1482" as="geometry" />
        </mxCell>
        <mxCell id="X1SJDL4mr-TTNCb6LaV9-73" value="Se consultan requisitos &#xa;del servicio &quot;Afiliado&quot; " style="" vertex="1" parent="3">
          <mxGeometry x="65.5" y="482" width="134.5" height="50" as="geometry" />
        </mxCell>
        <mxCell id="X1SJDL4mr-TTNCb6LaV9-44" style="edgeStyle=orthogonalEdgeStyle;rounded=0;orthogonalLoop=1;jettySize=auto;html=1;exitX=1;exitY=0.5;exitDx=0;exitDy=0;" edge="1" parent="1" source="X1SJDL4mr-TTNCb6LaV9-41" target="10">
          <mxGeometry relative="1" as="geometry" />
        </mxCell>
        <mxCell id="X1SJDL4mr-TTNCb6LaV9-46" style="edgeStyle=orthogonalEdgeStyle;rounded=0;orthogonalLoop=1;jettySize=auto;html=1;exitX=0;exitY=0.5;exitDx=0;exitDy=0;" edge="1" parent="1" source="X1SJDL4mr-TTNCb6LaV9-41" target="X1SJDL4mr-TTNCb6LaV9-45">
          <mxGeometry relative="1" as="geometry" />
        </mxCell>
        <mxCell id="X1SJDL4mr-TTNCb6LaV9-41" value="Es Afiliado Caja&#xa;y es Cotizante" style="rhombus;fillColor=#ffffc0;strokeColor=#ff0000;" vertex="1" parent="1">
          <mxGeometry x="205" y="360" width="80" height="40" as="geometry" />
        </mxCell>
        <mxCell id="9" value="" style="endArrow=open;strokeColor=#FF0000;endFill=1;rounded=0;entryX=0.5;entryY=0;entryDx=0;entryDy=0;" parent="1" source="7" target="X1SJDL4mr-TTNCb6LaV9-41" edge="1">
          <mxGeometry relative="1" as="geometry">
            <mxPoint x="245" y="348" as="targetPoint" />
            <Array as="points">
              <mxPoint x="245" y="290" />
            </Array>
          </mxGeometry>
        </mxCell>
        <mxCell id="X1SJDL4mr-TTNCb6LaV9-74" value="" style="edgeStyle=orthogonalEdgeStyle;rounded=0;orthogonalLoop=1;jettySize=auto;html=1;" edge="1" parent="1" source="X1SJDL4mr-TTNCb6LaV9-70" target="X1SJDL4mr-TTNCb6LaV9-73">
          <mxGeometry relative="1" as="geometry" />
        </mxCell>
        <mxCell id="X1SJDL4mr-TTNCb6LaV9-75" value="Usuario" style="swimlane;whiteSpace=wrap" vertex="1" parent="1">
          <mxGeometry x="-210" y="128" width="280" height="1482" as="geometry" />
        </mxCell>
        <mxCell id="5" value="" style="ellipse;shape=startState;fillColor=#000000;strokeColor=#ff0000;" parent="X1SJDL4mr-TTNCb6LaV9-75" vertex="1">
          <mxGeometry x="140" y="42" width="30" height="30" as="geometry" />
        </mxCell>
        <mxCell id="7" value="Usuario Ingresa" style="" parent="X1SJDL4mr-TTNCb6LaV9-75" vertex="1">
          <mxGeometry x="100" y="142" width="110" height="50" as="geometry" />
        </mxCell>
        <mxCell id="6" value="" style="edgeStyle=elbowEdgeStyle;elbow=horizontal;verticalAlign=bottom;endArrow=open;endSize=8;strokeColor=#FF0000;endFill=1;rounded=0;exitX=0.5;exitY=1;exitDx=0;exitDy=0;" parent="X1SJDL4mr-TTNCb6LaV9-75" source="5" target="7" edge="1">
          <mxGeometry x="440" y="40" as="geometry">
            <mxPoint x="455" y="110" as="targetPoint" />
            <Array as="points">
              <mxPoint x="155" y="142" />
            </Array>
          </mxGeometry>
        </mxCell>
        <mxCell id="X1SJDL4mr-TTNCb6LaV9-89" value="Confirma &#xa;Datos" style="rhombus;fillColor=#ffffc0;strokeColor=#ff0000;" vertex="1" parent="X1SJDL4mr-TTNCb6LaV9-75">
          <mxGeometry x="115" y="942" width="80" height="40" as="geometry" />
        </mxCell>
        <mxCell id="X1SJDL4mr-TTNCb6LaV9-95" value="Sí" style="text;html=1;align=center;verticalAlign=middle;resizable=0;points=[];autosize=1;" vertex="1" parent="X1SJDL4mr-TTNCb6LaV9-75">
          <mxGeometry x="210" y="942" width="30" height="20" as="geometry" />
        </mxCell>
        <mxCell id="X1SJDL4mr-TTNCb6LaV9-127" value="" style="ellipse;html=1;shape=endState;fillColor=#000000;strokeColor=#ff0000;" vertex="1" parent="X1SJDL4mr-TTNCb6LaV9-75">
          <mxGeometry x="100" y="1432" width="30" height="30" as="geometry" />
        </mxCell>
        <mxCell id="X1SJDL4mr-TTNCb6LaV9-134" value="No" style="text;html=1;align=center;verticalAlign=middle;resizable=0;points=[];autosize=1;" vertex="1" parent="X1SJDL4mr-TTNCb6LaV9-75">
          <mxGeometry x="60" y="942" width="30" height="20" as="geometry" />
        </mxCell>
        <mxCell id="X1SJDL4mr-TTNCb6LaV9-79" style="edgeStyle=orthogonalEdgeStyle;rounded=0;orthogonalLoop=1;jettySize=auto;html=1;entryX=1;entryY=0.5;entryDx=0;entryDy=0;exitX=0.5;exitY=1;exitDx=0;exitDy=0;" edge="1" parent="1" source="X1SJDL4mr-TTNCb6LaV9-73" target="X1SJDL4mr-TTNCb6LaV9-78">
          <mxGeometry relative="1" as="geometry" />
        </mxCell>
        <mxCell id="X1SJDL4mr-TTNCb6LaV9-88" value="" style="edgeStyle=orthogonalEdgeStyle;rounded=0;orthogonalLoop=1;jettySize=auto;html=1;" edge="1" parent="1" source="X1SJDL4mr-TTNCb6LaV9-84" target="X1SJDL4mr-TTNCb6LaV9-87">
          <mxGeometry relative="1" as="geometry">
            <Array as="points">
              <mxPoint x="-60" y="985" />
            </Array>
          </mxGeometry>
        </mxCell>
        <mxCell id="X1SJDL4mr-TTNCb6LaV9-84" value="Modifica Datos" style="" vertex="1" parent="1">
          <mxGeometry x="-130" y="860" width="120" height="50" as="geometry" />
        </mxCell>
        <mxCell id="X1SJDL4mr-TTNCb6LaV9-90" style="edgeStyle=orthogonalEdgeStyle;rounded=0;orthogonalLoop=1;jettySize=auto;html=1;entryX=0.5;entryY=0;entryDx=0;entryDy=0;" edge="1" parent="1" source="X1SJDL4mr-TTNCb6LaV9-87" target="X1SJDL4mr-TTNCb6LaV9-89">
          <mxGeometry relative="1" as="geometry">
            <Array as="points">
              <mxPoint x="210" y="1050" />
              <mxPoint x="-55" y="1050" />
            </Array>
          </mxGeometry>
        </mxCell>
        <mxCell id="X1SJDL4mr-TTNCb6LaV9-87" value="Solicita Confirmación &#xa;Datos" style="" vertex="1" parent="1">
          <mxGeometry x="150" y="960" width="120" height="50" as="geometry" />
        </mxCell>
        <mxCell id="X1SJDL4mr-TTNCb6LaV9-85" value="" style="edgeStyle=orthogonalEdgeStyle;rounded=0;orthogonalLoop=1;jettySize=auto;html=1;" edge="1" parent="1" source="X1SJDL4mr-TTNCb6LaV9-80" target="X1SJDL4mr-TTNCb6LaV9-84">
          <mxGeometry relative="1" as="geometry" />
        </mxCell>
        <mxCell id="X1SJDL4mr-TTNCb6LaV9-100" style="edgeStyle=orthogonalEdgeStyle;rounded=0;orthogonalLoop=1;jettySize=auto;html=1;" edge="1" parent="1" source="X1SJDL4mr-TTNCb6LaV9-93" target="X1SJDL4mr-TTNCb6LaV9-99">
          <mxGeometry relative="1" as="geometry">
            <mxPoint x="340.52941176470586" y="1181" as="targetPoint" />
          </mxGeometry>
        </mxCell>
        <mxCell id="X1SJDL4mr-TTNCb6LaV9-136" style="edgeStyle=orthogonalEdgeStyle;rounded=0;orthogonalLoop=1;jettySize=auto;html=1;exitX=0;exitY=0.5;exitDx=0;exitDy=0;" edge="1" parent="1" source="X1SJDL4mr-TTNCb6LaV9-93" target="X1SJDL4mr-TTNCb6LaV9-138">
          <mxGeometry relative="1" as="geometry">
            <mxPoint x="120" y="1200" as="targetPoint" />
            <Array as="points">
              <mxPoint x="130" y="1151" />
            </Array>
          </mxGeometry>
        </mxCell>
        <mxCell id="X1SJDL4mr-TTNCb6LaV9-93" value="Requiere &#xa;Aprobador" style="rhombus;fillColor=#ffffc0;strokeColor=#ff0000;" vertex="1" parent="1">
          <mxGeometry x="170" y="1131" width="80" height="40" as="geometry" />
        </mxCell>
        <mxCell id="X1SJDL4mr-TTNCb6LaV9-94" value="" style="edgeStyle=orthogonalEdgeStyle;rounded=0;orthogonalLoop=1;jettySize=auto;html=1;entryX=0.5;entryY=0;entryDx=0;entryDy=0;" edge="1" parent="1" source="X1SJDL4mr-TTNCb6LaV9-89" target="X1SJDL4mr-TTNCb6LaV9-93">
          <mxGeometry relative="1" as="geometry">
            <Array as="points">
              <mxPoint x="210" y="1090" />
            </Array>
          </mxGeometry>
        </mxCell>
        <mxCell id="X1SJDL4mr-TTNCb6LaV9-103" value="Administrar Clientes" style="swimlane;whiteSpace=wrap;startSize=23;" vertex="1" parent="1">
          <mxGeometry x="724.5" y="128" width="280" height="1482" as="geometry" />
        </mxCell>
        <mxCell id="X1SJDL4mr-TTNCb6LaV9-106" value="" style="edgeStyle=orthogonalEdgeStyle;rounded=0;orthogonalLoop=1;jettySize=auto;html=1;" edge="1" parent="1" source="X1SJDL4mr-TTNCb6LaV9-99" target="X1SJDL4mr-TTNCb6LaV9-105">
          <mxGeometry relative="1" as="geometry" />
        </mxCell>
        <mxCell id="X1SJDL4mr-TTNCb6LaV9-107" style="edgeStyle=orthogonalEdgeStyle;rounded=0;orthogonalLoop=1;jettySize=auto;html=1;entryX=0.5;entryY=0;entryDx=0;entryDy=0;" edge="1" parent="1" source="X1SJDL4mr-TTNCb6LaV9-105" target="X1SJDL4mr-TTNCb6LaV9-108">
          <mxGeometry relative="1" as="geometry">
            <mxPoint x="310" y="1340" as="targetPoint" />
            <Array as="points">
              <mxPoint x="885" y="1330" />
              <mxPoint x="257" y="1330" />
            </Array>
          </mxGeometry>
        </mxCell>
        <mxCell id="X1SJDL4mr-TTNCb6LaV9-105" value="Se actualizan Datos &#xa;a traves del servicio Radicar" style="" vertex="1" parent="1">
          <mxGeometry x="810" y="1195" width="150" height="50" as="geometry" />
        </mxCell>
        <mxCell id="X1SJDL4mr-TTNCb6LaV9-125" style="edgeStyle=orthogonalEdgeStyle;rounded=0;orthogonalLoop=1;jettySize=auto;html=1;entryX=0.75;entryY=0.5;entryDx=0;entryDy=0;entryPerimeter=0;" edge="1" parent="1" source="X1SJDL4mr-TTNCb6LaV9-111" target="X1SJDL4mr-TTNCb6LaV9-120">
          <mxGeometry relative="1" as="geometry">
            <Array as="points">
              <mxPoint x="320" y="1510" />
              <mxPoint x="300" y="1510" />
            </Array>
          </mxGeometry>
        </mxCell>
        <mxCell id="X1SJDL4mr-TTNCb6LaV9-111" value="Mensaje indicando&#xa;que se actualizo&#xa;correctamente" style="" vertex="1" parent="1">
          <mxGeometry x="260" y="1450" width="120" height="50" as="geometry" />
        </mxCell>
        <mxCell id="X1SJDL4mr-TTNCb6LaV9-112" style="edgeStyle=orthogonalEdgeStyle;rounded=0;orthogonalLoop=1;jettySize=auto;html=1;exitX=1;exitY=0.5;exitDx=0;exitDy=0;" edge="1" parent="1" source="X1SJDL4mr-TTNCb6LaV9-108" target="X1SJDL4mr-TTNCb6LaV9-111">
          <mxGeometry relative="1" as="geometry" />
        </mxCell>
        <mxCell id="X1SJDL4mr-TTNCb6LaV9-121" value="" style="edgeStyle=orthogonalEdgeStyle;html=1;verticalAlign=bottom;endArrow=open;endSize=8;strokeColor=#ff0000;entryX=1;entryY=0.5;entryDx=0;entryDy=0;" edge="1" source="X1SJDL4mr-TTNCb6LaV9-120" parent="1" target="X1SJDL4mr-TTNCb6LaV9-127">
          <mxGeometry relative="1" as="geometry">
            <mxPoint x="250" y="1600" as="targetPoint" />
            <Array as="points">
              <mxPoint x="250" y="1575" />
            </Array>
          </mxGeometry>
        </mxCell>
        <mxCell id="X1SJDL4mr-TTNCb6LaV9-133" style="edgeStyle=orthogonalEdgeStyle;rounded=0;orthogonalLoop=1;jettySize=auto;html=1;entryX=0.115;entryY=0.205;entryDx=0;entryDy=0;entryPerimeter=0;" edge="1" parent="1" source="X1SJDL4mr-TTNCb6LaV9-89" target="X1SJDL4mr-TTNCb6LaV9-128">
          <mxGeometry relative="1" as="geometry">
            <Array as="points">
              <mxPoint x="-180" y="1090" />
              <mxPoint x="-180" y="790" />
              <mxPoint x="133" y="790" />
            </Array>
          </mxGeometry>
        </mxCell>
        <mxCell id="X1SJDL4mr-TTNCb6LaV9-139" style="edgeStyle=orthogonalEdgeStyle;rounded=0;orthogonalLoop=1;jettySize=auto;html=1;entryX=0.5;entryY=0;entryDx=0;entryDy=0;exitX=0.5;exitY=1;exitDx=0;exitDy=0;" edge="1" parent="1" source="X1SJDL4mr-TTNCb6LaV9-138" target="X1SJDL4mr-TTNCb6LaV9-127">
          <mxGeometry relative="1" as="geometry">
            <Array as="points">
              <mxPoint x="150" y="1290" />
              <mxPoint x="-95" y="1290" />
            </Array>
          </mxGeometry>
        </mxCell>
      </root>
    </mxGraphModel>
  </diagram>
</mxfile>
